<svg xmlns="http://www.w3.org/2000/svg" version="1.1" xmlns:xlink="http://www.w3.org/1999/xlink" xmlns:svgjs="http://svgjs.dev/svgjs" width="100%" height="100%" viewBox="0 0 1000 600"><rect width="1000" height="600" x="0" y="0" fill="#3f3f3f"/><g><rect width="333.3333333333333" height="333.3333333333333" rx="13.333333333333334" ry="13.333333333333334" y="286.07550415594875" fill="blueviolet" transform="matrix(0.47374815289111283,0,0,0.47374815289111283,0,85.51423082783694)" x="263.853271484375"/><path d="M409.269937992096 511.7421812118031L474.769937992096 511.7421812118031L472.769937992096 527.7421812118031L387.76993799209595 527.7421812118031L389.26993799209595 507.7421812118031L389.26993799209595 398.7421812118031L386.26993799209595 377.7421812118031L471.269937992096 377.7421812118031L471.269937992096 393.7421812118031L408.269937992096 393.7421812118031L410.269937992096 412.7421812118031L410.269937992096 439.2421812118031L464.269937992096 439.2421812118031L464.269937992096 453.7421812118031L410.269937992096 453.7421812118031L410.269937992096 493.7421812118031L409.269937992096 511.7421812118031Z " fill="white" transform="matrix(0.47374815289111283,0,0,0.47374815289111283,0,85.51423082783694)"/><path d="M697.4570712428372 477.8921842118519L745.6910806752782 477.8921842118519L744.2182864941349 489.67453766099777L681.6245337955474 489.67453766099777L682.729129431405 474.9465958495654L682.729129431405 394.6793129772592L680.5199381596901 379.21497407525527L743.1136908582776 379.21497407525527L743.1136908582776 390.9973275244011L696.7206741522657 390.9973275244011L698.1934683334089 404.9888722452618L698.1934683334089 424.5033951454097L737.9589112242761 424.5033951454097L737.9589112242761 435.18115295869814L698.1934683334089 435.18115295869814L698.1934683334089 464.63703658156277L697.4570712428372 477.8921842118519ZM836.3497447145394 489.67453766099777L819.780810176678 489.67453766099777L800.041277054411 461.5482598961096L796.7274901468388 452.85468313241694L793.4137032392666 461.5482598961096L773.6741701169996 489.67453766099777L759.0280502045196 489.67453766099777L789.3635192411227 446.37029764043905L762.9964123037112 408.6708576981199L778.5425731046676 407.4230737390958L795.8479047331004 432.1537426974593L798.7116711964345 440.33593259269946L801.5140712355544 432.1537426974593L818.0830057734156 408.6708576981199L833.6087110996339 407.4230737390958L806.0756421021508 446.7384961857249L836.3497447145394 489.67453766099777ZM866.8284020743092 428.7785893656727L866.8284020743092 477.8921842118519L878.8971321697884 477.8921842118519Q885.6883497828378 477.8921842118519 890.6590301441961 475.6420819906608Q895.6297105055546 473.3919797694698 898.8207645646983 469.3417957713259Q902.03227409858 465.291611773182 903.5664347039376 459.62544527072816Q905.1210507840331 453.9592787682743 905.1210507840331 447.1066947310107L905.1210507840331 447.1066947310107Q905.1210507840331 439.8859121484612 903.7300785018424 434.6288551407694Q902.3186507449134 429.3717981330776 899.8844492510796 425.9352783770767Q897.4707032319836 422.51921409581394 894.2591936981019 420.8623206420278Q891.0476841642201 419.20542718824163 887.4475206103143 419.20542718824163L887.4475206103143 419.20542718824163Q883.8473570564088 419.20542718824163 880.7176694214793 420.1259235514562Q877.58798178655 421.0464199146707 874.969681020073 422.43739219686154Q872.3513802535963 423.84881995379044 870.2853773050481 425.5261688823147Q868.2193743564999 427.223973285577 866.8284020743092 428.7785893656727L866.8284020743092 428.7785893656727ZM866.8284020743092 526.4943921895785L852.8368573534483 526.4943921895785L852.8368573534483 408.6708576981199L866.8284020743092 407.1980635169767L866.8284020743092 420.1668345009324L873.8241744347395 410.7982270708824Q875.9515438075018 409.5504431118582 879.8994504319553 408.48675842547703Q883.8473570564088 407.4230737390958 889.5748899830769 407.4230737390958L889.5748899830769 407.4230737390958Q895.6910769297688 407.4230737390958 901.0708667858892 410.28684020242986Q906.4506566420098 413.17106214050204 910.4599296906774 418.46903009767004Q914.4692027393451 423.76699805483804 916.8011268594885 431.2741572837209Q919.112595504894 438.7813165126038 919.112595504894 448.0681020437014L919.112595504894 448.0681020437014Q919.112595504894 457.12987735267996 916.1670071426074 464.7393139552533Q913.2214187803208 472.36920603256476 907.8007179747244 477.9330951613281Q902.4004726438659 483.4969842900914 894.70921414234 486.5857609755446Q886.9975001660762 489.67453766099777 877.5061598875975 489.67453766099777L877.5061598875975 489.67453766099777L866.8284020743092 489.67453766099777L866.8284020743092 526.4943921895785ZM989.58170597765 473.10560312313635L997.6207075497234 480.18319738251915Q995.3296943790563 482.5355769774007 992.6091162388889 484.51975802699644Q989.8885380987215 486.5039390765922 986.5747511911493 487.9358223082592Q983.2609642835769 489.3881610146643 979.2312357601711 490.14501357997403Q975.2219627115035 490.9223216200219 970.2921932996212 490.9223216200219L970.2921932996212 490.9223216200219Q960.4940209000711 490.9223216200219 953.5800704385931 487.4653463892829Q946.6456645023773 484.0083711585439 942.2681929084235 478.1785608581853Q937.89072131447 472.36920603256476 935.8656293153981 464.8620468036819Q933.8405373163262 457.354887574799 933.8405373163262 449.17269767955884L933.8405373163262 449.17269767955884Q933.8405373163262 443.9360961466051 934.801944629017 438.82222746208Q935.7633519417077 433.7083587775549 937.6657110923511 429.0649660120061Q939.5885257177324 424.4215732464573 942.4522921810665 420.4532111472658Q945.3365141191387 416.4848490480743 949.1616878951636 413.60062711000216Q952.9868616711883 410.73686064666805 957.8143537093799 409.07996719288195Q962.6418457475718 407.4230737390958 968.4512005731922 407.4230737390958L968.4512005731922 407.4230737390958Q976.4083802463133 407.4230737390958 982.2177350719339 410.00046355609646Q988.0475453722925 412.5778533730971 991.8727191483172 417.2212461386459Q995.6978929243421 421.8441834294566 997.5388856507711 428.32856892143445Q999.3798783772002 434.8129544134123 999.3798783772002 442.688312187581L999.3798783772002 442.688312187581Q999.3798783772002 444.9793253582483 999.2366900540335 447.6999034984156Q999.0935017308668 450.42048163858294 998.7866696097951 452.85468313241694L998.7866696097951 452.85468313241694L947.8320820371869 452.85468313241694Q947.8320820371869 458.37766131170406 949.3457871678063 463.16424240041954Q950.8594922984257 467.9508234891351 953.5800704385931 471.53053156830265Q956.3006485787605 475.08978417273215 960.1667333042615 477.1148761718041Q964.0328180297627 479.13996817087605 968.819399118478 479.13996817087605L968.819399118478 479.13996817087605Q973.5241583082411 479.13996817087605 977.0220444884562 478.4444820297806Q980.5199306686716 477.74899588868516 983.0359540614579 476.74667762651825Q985.5315219795061 475.76481483908947 987.1270490090778 474.7215856274463Q988.7021205639116 473.69881189054126 989.58170597765 473.10560312313635L989.58170597765 473.10560312313635ZM958.5098398504754 441.80872677384264L985.3883336563395 441.80872677384264Q985.4701555552917 440.99050778431865 985.4906110300299 440.19274426953274Q985.5315219795061 439.3745252800087 985.5315219795061 438.5767617652228L985.5315219795061 438.5767617652228Q985.5315219795061 434.3629339691741 984.5701146668155 430.8445923142208Q983.6291628288627 427.3057951845294 981.6654372540052 424.68749441805255Q979.7221671538855 422.06919365157574 976.6947568926466 420.59639947043246Q973.6878021061459 419.12360528928923 969.5557962090497 419.12360528928923L969.5557962090497 419.12360528928923Q964.6260267971675 419.12360528928923 961.1281406169524 420.7191323188611Q957.630254436737 422.2942038736948 955.2369638923794 424.769316317005Q952.8436733480216 427.223973285577 951.4117901163545 430.1695616478635Q949.9594514099495 433.11515001015 949.2230543193778 435.77436172610305L949.2230543193778 435.77436172610305L945.397880543353 443.79290782343844L958.5098398504754 441.80872677384264ZM1036.199732905781 427.53080540664854L1036.199732905781 489.67453766099777L1022.2081881849203 489.67453766099777L1022.2081881849203 408.6708576981199L1036.199732905781 407.1980635169767L1036.199732905781 420.6782213693849L1040.699937348163 412.8028635952162Q1042.0090877314015 411.9028227067398 1044.0750906799497 410.9618708687872Q1046.1410936284979 410.00046355609646 1048.6775724960223 409.2231555160486Q1051.2140513635468 408.4458474760008 1054.1596397258331 407.93446060754826Q1057.1052280881197 407.4230737390958 1060.1326383493586 407.4230737390958L1060.1326383493586 407.4230737390958Q1065.941993174979 407.4230737390958 1069.9717216983847 409.304977415001Q1073.9809947470526 411.16642561616817 1076.4765626651008 414.70522274585954Q1078.9925860578871 418.2440198755509 1080.0562707442684 423.2556111863855Q1081.1199554306495 428.2672024972202 1081.1199554306495 434.4447558681265L1081.1199554306495 434.4447558681265L1081.1199554306495 489.67453766099777L1067.1284107097888 489.67453766099777L1067.1284107097888 434.4447558681265Q1067.1284107097888 430.476393768935 1066.5761128918602 427.59217183086287Q1066.0238150739315 424.7284053675288 1064.6532982664787 422.84650169162353Q1063.303236933764 420.9645980157183 1061.012223763097 420.08501260198Q1058.7416660671677 419.20542718824163 1055.346057260643 419.20542718824163L1055.346057260643 419.20542718824163Q1052.8504893425948 419.20542718824163 1050.273099525594 419.98273522828947Q1047.6957097085933 420.7395877935992 1045.2205972652832 421.9669162778852Q1042.7454848219732 423.1737892874331 1040.4340161765679 424.6465834685764Q1038.1225475311624 426.11937764971964 1036.199732905781 427.53080540664854L1036.199732905781 427.53080540664854ZM1148.7866658642859 412.5778533730971L1144.531927118761 422.0078272273614Q1143.2023212607844 421.3327965610041 1141.3613285343554 420.6782213693849Q1139.5203358079264 420.0031907030276 1137.5361547583307 419.4918038345751Q1135.5315182339968 418.98041696612256 1133.506426234925 418.6940403197891Q1131.481334235853 418.38720819871764 1129.640341509424 418.38720819871764L1129.640341509424 418.38720819871764Q1121.8468056342076 418.38720819871764 1118.5943851508496 420.7191323188611Q1115.3624201422297 423.03060096426645 1115.3624201422297 427.67399372981527L1115.3624201422297 427.67399372981527Q1115.3624201422297 430.7627704152684 1117.4897895149923 432.78786241434034Q1119.6376143624927 434.8129544134123 1123.0127676942793 436.42893691772224Q1126.408376500804 438.0449194220322 1130.5608378726383 439.4972581284373Q1134.733754719211 440.9291413601044 1138.7021168184024 442.9133224097001L1138.7021168184024 442.9133224097001Q1141.5863387564746 444.30429469189096 1144.531927118761 446.2271093172724Q1147.4775154810475 448.1499239426538 1149.829895075929 450.72731375965446Q1152.1822746708106 453.30470357665513 1153.6550688519537 456.53666858527504Q1155.1278630330971 459.7686335938949 1155.1278630330971 463.8188175920388L1155.1278630330971 463.8188175920388Q1155.1278630330971 471.2646103967073 1152.632295115049 476.41939003070866Q1150.1162717222626 481.57416966471 1145.8206220272614 484.78567919859177Q1141.504516857522 487.9767332577354 1135.7156175066398 489.44952743887865Q1129.9471736304954 490.9223216200219 1123.3809662395652 490.9223216200219L1123.3809662395652 490.9223216200219Q1120.885398321517 490.9223216200219 1117.7147997371114 490.45184570104556Q1114.5442011527057 489.96091430733117 1111.3940580430383 489.12223984306905Q1108.2234594586328 488.28356537880694 1105.3392375205606 487.0971478439971Q1102.4754710572265 485.9107303091873 1100.552656431845 484.60157992594884L1100.552656431845 484.60157992594884L1105.4210594195129 474.864773950613Q1107.1802302469896 475.76481483908947 1109.6144317408236 476.5216674043992Q1112.0486332346575 477.29897544444697 1114.6260230516582 477.8921842118519Q1117.203412868659 478.4853929792568 1119.7398917361832 478.8126805750664Q1122.2763706037078 479.13996817087605 1124.2810071280414 479.13996817087605L1124.2810071280414 479.13996817087605Q1127.656160459828 479.13996817087605 1130.7858480947575 478.4444820297806Q1133.9155357296868 477.74899588868516 1136.3088262740446 476.19437980858953Q1138.7021168184024 474.66021920323203 1140.1340000500693 472.18510675992184Q1141.5863387564746 469.7099943166117 1141.5863387564746 466.10983076270605L1141.5863387564746 466.10983076270605Q1141.5863387564746 463.38925262253866 1140.4408321711408 461.3232496739905Q1139.2953255858072 459.25724672544237 1137.3520554856877 457.6821751706086Q1135.3883299108302 456.0866481410368 1132.8109400938295 454.77749775779836Q1130.2335502768287 453.44789189982185 1127.3697838134947 452.2205634155358Q1124.4855618754225 451.01369040598786 1121.4786070889218 449.72499549748755Q1118.451196827683 448.43630058898725 1115.7306186875155 446.88168450889157L1115.7306186875155 446.88168450889157Q1113.1532288705148 445.40889032774834 1110.7599383261572 443.6497195002717Q1108.3666477817994 441.8905486727951 1106.5256550553704 439.6813574010802Q1104.6846623289414 437.47216612936535 1103.5800666930838 434.7106770397218Q1102.4754710572265 431.9491879500782 1102.4754710572265 428.41039082038685L1102.4754710572265 428.41039082038685Q1102.4754710572265 422.80559074214733 1104.4596521068222 418.79631769347964Q1106.443833156418 414.78704464481194 1110.0644521850618 412.2710212520256Q1113.6646157389673 409.77545333397734 1118.7580289487544 408.5890357991675Q1123.8309866838033 407.4230737390958 1129.9471736304954 407.4230737390958L1129.9471736304954 407.4230737390958Q1132.749573669615 407.4230737390958 1135.4701518097825 407.85263870859586Q1138.1907299499499 408.3026591528341 1140.686297867998 408.99814529392955Q1143.2023212607844 409.69363143502494 1145.2683242093326 410.65503874771565Q1147.3138716831427 411.61644606040636 1148.7866658642859 412.5778533730971L1148.7866658642859 412.5778533730971ZM1225.2287749605673 473.10560312313635L1233.267776532641 480.18319738251915Q1230.9767633619736 482.5355769774007 1228.2561852218062 484.51975802699644Q1225.5356070816388 486.5039390765922 1222.2218201740666 487.9358223082592Q1218.9080332664942 489.3881610146643 1214.8783047430884 490.14501357997403Q1210.8690316944208 490.9223216200219 1205.9392622825387 490.9223216200219L1205.9392622825387 490.9223216200219Q1196.1410898829884 490.9223216200219 1189.2271394215104 487.4653463892829Q1182.2927334852945 484.0083711585439 1177.9152618913408 478.1785608581853Q1173.5377902973873 472.36920603256476 1171.5126982983154 464.8620468036819Q1169.4876062992437 457.354887574799 1169.4876062992437 449.17269767955884L1169.4876062992437 449.17269767955884Q1169.4876062992437 443.9360961466051 1170.4490136119343 438.82222746208Q1171.410420924625 433.7083587775549 1173.3127800752684 429.0649660120061Q1175.23559470065 424.4215732464573 1178.0993611639838 420.4532111472658Q1180.983583102056 416.4848490480743 1184.8087568780809 413.60062711000216Q1188.6339306541056 410.73686064666805 1193.4614226922972 409.07996719288195Q1198.288914730489 407.4230737390958 1204.0982695561097 407.4230737390958L1204.0982695561097 407.4230737390958Q1212.0554492292306 407.4230737390958 1217.864804054851 410.00046355609646Q1223.6946143552098 412.5778533730971 1227.5197881312347 417.2212461386459Q1231.3449619072594 421.8441834294566 1233.1859546336884 428.32856892143445Q1235.0269473601174 434.8129544134123 1235.0269473601174 442.688312187581L1235.0269473601174 442.688312187581Q1235.0269473601174 444.9793253582483 1234.8837590369508 447.6999034984156Q1234.740570713784 450.42048163858294 1234.4337385927126 452.85468313241694L1234.4337385927126 452.85468313241694L1183.4791510201044 452.85468313241694Q1183.4791510201044 458.37766131170406 1184.9928561507238 463.16424240041954Q1186.5065612813432 467.9508234891351 1189.2271394215104 471.53053156830265Q1191.9477175616778 475.08978417273215 1195.8138022871788 477.1148761718041Q1199.67988701268 479.13996817087605 1204.4664681013953 479.13996817087605L1204.4664681013953 479.13996817087605Q1209.1712272911584 479.13996817087605 1212.6691134713737 478.4444820297806Q1216.1669996515889 477.74899588868516 1218.6830230443752 476.74667762651825Q1221.1785909624234 475.76481483908947 1222.7741179919954 474.7215856274463Q1224.349189546829 473.69881189054126 1225.2287749605673 473.10560312313635L1225.2287749605673 473.10560312313635ZM1194.1569088333927 441.80872677384264L1221.0354026392567 441.80872677384264Q1221.1172245382093 440.99050778431865 1221.1376800129472 440.19274426953274Q1221.1785909624234 439.3745252800087 1221.1785909624234 438.5767617652228L1221.1785909624234 438.5767617652228Q1221.1785909624234 434.3629339691741 1220.2171836497328 430.8445923142208Q1219.27623181178 427.3057951845294 1217.3125062369224 424.68749441805255Q1215.3692361368028 422.06919365157574 1212.3418258755642 420.59639947043246Q1209.3348710890632 419.12360528928923 1205.202865191967 419.12360528928923L1205.202865191967 419.12360528928923Q1200.2730957800848 419.12360528928923 1196.7752095998696 420.7191323188611Q1193.2773234196543 422.2942038736948 1190.8840328752965 424.769316317005Q1188.490742330939 427.223973285577 1187.0588590992718 430.1695616478635Q1185.6065203928667 433.11515001015 1184.870123302295 435.77436172610305L1184.870123302295 435.77436172610305L1181.0449495262703 443.79290782343844L1194.1569088333927 441.80872677384264ZM1361.6872469384357 489.67453766099777L1346.2229080364316 489.67453766099777L1346.2229080364316 416.0348286038361L1349.4548730450515 392.47012170554433L1349.0866744997656 392.38829980659193L1341.6613371698354 414.5620344226929L1311.100857911113 480.10137548356676L1306.0074447013262 480.10137548356676L1278.8425742491286 421.926005328409L1269.126223748531 392.38829980659193L1268.6762033042928 392.47012170554433L1272.5831989792698 423.31697761059985L1272.5831989792698 489.67453766099777L1257.8552571678376 489.67453766099777L1257.8552571678376 394.6793129772592L1255.7892542192894 379.21497407525527L1273.0332194235082 377.742179894112L1305.352869509707 446.96350640784397L1309.4030535078507 466.10983076270605L1313.4532375059948 446.96350640784397L1345.0364905016218 379.21497407525527L1361.6872469384357 377.742179894112L1361.6872469384357 489.67453766099777ZM1441.9545298107419 476.41939003070866L1443.427323991885 489.67453766099777L1427.9629850898812 489.67453766099777L1427.9629850898812 477.74899588868516L1421.0490346284032 485.99255220813967Q1419.780795194641 486.9539595208304 1418.164812690331 487.83354493456875Q1416.548830186021 488.713130348307 1414.8919367322349 489.40861648940245Q1413.2350432784488 490.12455810523596 1411.5781498246624 490.5132121252599Q1409.9212563708766 490.9223216200219 1408.5302840886857 490.9223216200219L1408.5302840886857 490.9223216200219Q1403.0073059093984 490.9223216200219 1397.9548036490878 489.20406174202145Q1392.9023013887768 487.4653463892829 1389.1180385622283 484.11064853223445Q1385.3337757356796 480.75595067518594 1383.0836735144885 475.78527031382754Q1380.8335712932976 470.81458995246913 1380.8335712932976 464.3506599352294L1380.8335712932976 464.3506599352294Q1380.8335712932976 457.4980758979657 1383.595060382941 452.4455736376549Q1386.3565494725847 447.4135268520822 1390.6726546423238 444.0588289950337Q1394.968304337325 440.70413113798526 1400.266272294493 439.0472376841991Q1405.5846957263993 437.39034423041295 1410.657653461448 437.39034423041295L1410.657653461448 437.39034423041295Q1414.8510257827586 437.39034423041295 1418.0625353166404 437.8403646746512Q1421.253589375784 438.26992964415126 1423.462780647499 438.8631384115562L1423.462780647499 438.8631384115562Q1426.0401704644996 439.5177136031754 1427.9629850898812 440.33593259269946L1427.9629850898812 440.33593259269946L1427.9629850898812 437.7585427756988Q1427.9629850898812 433.42198213122145 1427.4515982214286 429.9445514257444Q1426.9402113529761 426.48757619500543 1425.3446843234042 424.09428565064763Q1423.7696127685704 421.7009951062899 1420.7831134568078 420.4532111472658Q1417.7966141450452 419.20542718824163 1412.866844733163 419.20542718824163L1412.866844733163 419.20542718824163Q1408.8984826339715 419.20542718824163 1405.2164971811135 419.75772500617035Q1401.5345117282554 420.31002282409906 1398.6502897901833 420.9645980157183L1398.6502897901833 420.9645980157183Q1395.2751364583964 421.78281700524235 1392.3909145203243 422.66240241898066L1392.3909145203243 422.66240241898066L1387.0929465631564 412.8028635952162Q1390.3249115717763 411.33006941407297 1394.4569174688725 410.14365187926313L1394.4569174688725 410.14365187926313Q1397.9957145985638 409.1208781423581 1402.8436621114938 408.2617482033579Q1407.7120650991617 407.4230737390958 1413.6032418237346 407.4230737390958L1413.6032418237346 407.4230737390958Q1422.0718083653082 407.4230737390958 1427.5947865445953 409.69363143502494Q1433.1177647238824 411.9846446056922 1436.288363308288 416.1166505027885Q1439.4589618926934 420.22820092514667 1440.7067458517176 426.0171002760291Q1441.9545298107419 431.78554415217343 1441.9545298107419 438.8631384115562L1441.9545298107419 438.8631384115562L1441.9545298107419 476.41939003070866ZM1427.9629850898812 469.5054395692307L1427.9629850898812 450.42048163858294Q1425.896982141333 450.13410499224955 1423.5446025464514 449.827272871178L1423.5446025464514 449.827272871178Q1421.5604214968557 449.62271812379703 1418.9830316798548 449.39770790167796Q1416.4056418628543 449.17269767955884 1413.6032418237346 449.17269767955884L1413.6032418237346 449.17269767955884Q1409.4712359266382 449.17269767955884 1406.0551716453756 449.9909166690828Q1402.6391073641125 450.7886801838688 1400.1230839713264 452.5887619608216Q1397.6275160532782 454.40929921251256 1396.216088296349 457.2730656758466Q1394.8251160141583 460.1368321391807 1394.8251160141583 464.268838036277L1394.8251160141583 464.268838036277Q1394.8251160141583 467.5826249438493 1395.9297116500156 470.3032030840166Q1397.0343072858732 473.02378122418395 1398.9571219112547 475.0284177485178Q1400.859481061898 477.0125987981136 1403.4777818283749 478.0762834844948Q1406.0960825948519 479.13996817087605 1409.1030373813524 479.13996817087605L1409.1030373813524 479.13996817087605Q1410.5144651382814 479.13996817087605 1412.089536693115 478.730858676114Q1413.685063722687 478.3422046560901 1415.2601352775205 477.66717398973276Q1416.8352068323545 477.0125987981136 1418.4307338619262 476.13301338437526Q1420.0058054167598 475.2329724958988 1421.4172331736888 474.3533870821605L1421.4172331736888 474.3533870821605Q1424.7310200812612 472.2260177093981 1427.9629850898812 469.5054395692307L1427.9629850898812 469.5054395692307ZM1481.719972701609 427.53080540664854L1481.719972701609 489.67453766099777L1467.7284279807484 489.67453766099777L1467.7284279807484 408.6708576981199L1481.719972701609 407.1980635169767L1481.719972701609 420.6782213693849L1486.2201771439914 412.8028635952162Q1487.5293275272297 411.9028227067398 1489.5953304757777 410.9618708687872Q1491.661333424326 410.00046355609646 1494.1978122918504 409.2231555160486Q1496.7342911593746 408.4458474760008 1499.6798795216614 407.93446060754826Q1502.6254678839477 407.4230737390958 1505.6528781451866 407.4230737390958L1505.6528781451866 407.4230737390958Q1511.4622329708072 407.4230737390958 1515.491961494213 409.304977415001Q1519.5012345428806 411.16642561616817 1521.9968024609288 414.70522274585954Q1524.5128258537152 418.2440198755509 1525.5765105400965 423.2556111863855Q1526.6401952264778 428.2672024972202 1526.6401952264778 434.4447558681265L1526.6401952264778 434.4447558681265L1526.6401952264778 489.67453766099777L1512.648650505617 489.67453766099777L1512.648650505617 434.4447558681265Q1512.648650505617 430.476393768935 1512.0963526876885 427.59217183086287Q1511.5440548697595 424.7284053675288 1510.1735380623068 422.84650169162353Q1508.8234767295921 420.9645980157183 1506.532463558925 420.08501260198Q1504.2619058629957 419.20542718824163 1500.866297056471 419.20542718824163L1500.866297056471 419.20542718824163Q1498.3707291384228 419.20542718824163 1495.793339321422 419.98273522828947Q1493.2159495044216 420.7395877935992 1490.7408370611115 421.9669162778852Q1488.2657246178012 423.1737892874331 1485.954255972396 424.6465834685764Q1483.6427873269904 426.11937764971964 1481.719972701609 427.53080540664854L1481.719972701609 427.53080540664854ZM1607.6438751893554 476.41939003070866L1609.1166693704988 489.67453766099777L1593.652330468495 489.67453766099777L1593.652330468495 477.74899588868516L1586.7383800070168 485.99255220813967Q1585.4701405732546 486.9539595208304 1583.8541580689448 487.83354493456875Q1582.2381755646347 488.713130348307 1580.5812821108484 489.40861648940245Q1578.9243886570625 490.12455810523596 1577.2674952032762 490.5132121252599Q1575.6106017494903 490.9223216200219 1574.2196294672995 490.9223216200219L1574.2196294672995 490.9223216200219Q1568.6966512880122 490.9223216200219 1563.6441490277016 489.20406174202145Q1558.5916467673906 487.4653463892829 1554.807383940842 484.11064853223445Q1551.0231211142934 480.75595067518594 1548.7730188931023 475.78527031382754Q1546.5229166719114 470.81458995246913 1546.5229166719114 464.3506599352294L1546.5229166719114 464.3506599352294Q1546.5229166719114 457.4980758979657 1549.2844057615548 452.4455736376549Q1552.0458948511985 447.4135268520822 1556.3620000209376 444.0588289950337Q1560.6576497159388 440.70413113798526 1565.9556176731069 439.0472376841991Q1571.274041105013 437.39034423041295 1576.3469988400618 437.39034423041295L1576.3469988400618 437.39034423041295Q1580.5403711613724 437.39034423041295 1583.7518806952542 437.8403646746512Q1586.9429347543978 438.26992964415126 1589.1521260261127 438.8631384115562L1589.1521260261127 438.8631384115562Q1591.7295158431134 439.5177136031754 1593.652330468495 440.33593259269946L1593.652330468495 440.33593259269946L1593.652330468495 437.7585427756988Q1593.652330468495 433.42198213122145 1593.1409436000424 429.9445514257444Q1592.62955673159 426.48757619500543 1591.034029702018 424.09428565064763Q1589.4589581471841 421.7009951062899 1586.4724588354215 420.4532111472658Q1583.485959523659 419.20542718824163 1578.5561901117767 419.20542718824163L1578.5561901117767 419.20542718824163Q1574.5878280125853 419.20542718824163 1570.9058425597273 419.75772500617035Q1567.2238571068692 420.31002282409906 1564.3396351687968 420.9645980157183L1564.3396351687968 420.9645980157183Q1560.9644818370102 421.78281700524235 1558.080259898938 422.66240241898066L1558.080259898938 422.66240241898066L1552.78229194177 412.8028635952162Q1556.01425695039 411.33006941407297 1560.1462628474862 410.14365187926313L1560.1462628474862 410.14365187926313Q1563.6850599771776 409.1208781423581 1568.5330074901076 408.2617482033579Q1573.4014104777752 407.4230737390958 1579.2925872023484 407.4230737390958L1579.2925872023484 407.4230737390958Q1587.7611537439218 407.4230737390958 1593.284131923209 409.69363143502494Q1598.8071101024962 411.9846446056922 1601.9777086869017 416.1166505027885Q1605.1483072713072 420.22820092514667 1606.3960912303314 426.0171002760291Q1607.6438751893554 431.78554415217343 1607.6438751893554 438.8631384115562L1607.6438751893554 438.8631384115562L1607.6438751893554 476.41939003070866ZM1593.652330468495 469.5054395692307L1593.652330468495 450.42048163858294Q1591.5863275199467 450.13410499224955 1589.233947925065 449.827272871178L1589.233947925065 449.827272871178Q1587.2497668754693 449.62271812379703 1584.6723770584686 449.39770790167796Q1582.094987241468 449.17269767955884 1579.2925872023484 449.17269767955884L1579.2925872023484 449.17269767955884Q1575.160581305252 449.17269767955884 1571.7445170239894 449.9909166690828Q1568.3284527427263 450.7886801838688 1565.81242934994 452.5887619608216Q1563.3168614318918 454.40929921251256 1561.9054336749628 457.2730656758466Q1560.5144613927719 460.1368321391807 1560.5144613927719 464.268838036277L1560.5144613927719 464.268838036277Q1560.5144613927719 467.5826249438493 1561.6190570286294 470.3032030840166Q1562.723652664487 473.02378122418395 1564.6464672898683 475.0284177485178Q1566.5488264405117 477.0125987981136 1569.1671272069887 478.0762834844948Q1571.7854279734656 479.13996817087605 1574.7923827599661 479.13996817087605L1574.7923827599661 479.13996817087605Q1576.2038105168951 479.13996817087605 1577.7788820717287 478.730858676114Q1579.3744091013007 478.3422046560901 1580.9494806561343 477.66717398973276Q1582.524552210968 477.0125987981136 1584.12007924054 476.13301338437526Q1585.6951507953736 475.2329724958988 1587.1065785523026 474.3533870821605L1587.1065785523026 474.3533870821605Q1590.420365459875 472.2260177093981 1593.652330468495 469.5054395692307L1593.652330468495 469.5054395692307ZM1678.3379958842308 491.96555083166504L1678.3379958842308 479.73317693828096L1671.9354322912054 487.83354493456875Q1671.260401624848 488.28356537880694 1670.0535286153 488.7949522472594Q1668.8466556057522 489.3063391157119 1667.0670293035373 489.77681503468824Q1665.3078584760606 490.2677464284027 1662.9554788811793 490.5950340242123Q1660.5826438115596 490.9223216200219 1657.7188773482255 490.9223216200219L1657.7188773482255 490.9223216200219Q1651.0094816341284 490.9223216200219 1645.241037757984 487.6494456619258Q1639.4521384071018 484.3765697038297 1635.1769441868387 478.730858676114Q1630.922205441314 473.10560312313635 1628.4880039474801 465.55753294477734Q1626.053802453646 458.0094627664182 1626.053802453646 449.54089622484463L1626.053802453646 449.54089622484463Q1626.053802453646 440.9291413601044 1628.2629937253607 433.25833833331666Q1630.4721849970756 425.6079907812671 1634.8905675405053 419.8600023798609Q1639.308950083935 414.1120139784546 1645.8547020001274 410.77777159614425Q1652.4209093910574 407.4230737390958 1661.11448615475 407.4230737390958L1661.11448615475 407.4230737390958Q1663.8350642949176 407.4230737390958 1666.4533650613944 407.6480839612149Q1669.051210353133 407.85263870859586 1671.3422235238004 408.6708576981199L1671.3422235238004 408.6708576981199L1678.3379958842308 419.12360528928923L1678.3379958842308 407.1980635169767L1692.3295406050916 408.6708576981199L1692.3295406050916 493.0701464675224Q1692.3295406050916 500.27047357533377 1689.8544281617812 506.61167074414493Q1687.3997711932093 512.9528679129561 1682.7563784276606 517.616716153243Q1678.1129856621114 522.301019868268 1671.4445008974908 525.0215980084354Q1664.7964716076083 527.7421761486028 1656.389271490249 527.7421761486028L1656.389271490249 527.7421761486028Q1650.5799166646284 527.7421761486028 1646.202445070675 526.2693819674595Q1641.804518001983 524.7965877863162 1638.71574131653 523.0374169588397L1638.71574131653 523.0374169588397Q1635.1769441868387 520.9714140102915 1632.5995543698382 518.2508358701241L1632.5995543698382 518.2508358701241L1639.8203369523876 510.1504678738363Q1641.968161799888 511.76645037814626 1644.606918041103 513.0960562361228L1644.606918041103 513.0960562361228Q1646.8979312117704 514.2006518719802 1649.9048859982713 515.0802372857186Q1652.9322962595102 515.9598226994568 1656.4710933892013 515.9598226994568L1656.4710933892013 515.9598226994568Q1661.0326642557977 515.9598226994568 1665.0010263549893 514.0779190235517Q1668.989843928919 512.2164708223845 1671.9763432406817 508.9640503390265Q1674.9423870777061 505.7320853304066 1676.6401914809685 501.35461373645313Q1678.3379958842308 496.9566866677615 1678.3379958842308 491.96555083166504L1678.3379958842308 491.96555083166504ZM1678.3379958842308 469.4236176702783L1678.3379958842308 428.2672024972202Q1676.3538148346352 425.7511791044338 1673.6946031186822 423.76699805483804L1673.6946031186822 423.76699805483804Q1671.424045422753 422.06919365157574 1668.1716249393949 420.63731041990866Q1664.9396599307747 419.20542718824163 1660.7462876094642 419.20542718824163L1660.7462876094642 419.20542718824163Q1656.3279050660349 419.20542718824163 1653.0754845826766 420.59639947043246Q1649.843519574057 422.0078272273614 1647.5115954539133 424.36020682224296Q1645.2001268085082 426.7125864171245 1643.768243576841 429.8422740520539Q1642.336360345174 432.97196168698326 1641.477230406174 436.46984786719844Q1640.6385559419116 439.9677340474136 1640.3317238208401 443.5474421265812Q1640.0453471745068 447.1066947310107 1640.0453471745068 450.42048163858294L1640.0453471745068 450.42048163858294Q1640.0453471745068 456.6798569084417 1641.4158639819593 461.95736939087163Q1642.7659253146742 467.21442639856343 1645.241037757984 470.998689225112Q1647.6956947265562 474.8034075263987 1651.1935809067716 476.9307768991612Q1654.6914670869864 479.0786017466617 1658.9052948830354 479.0786017466617L1658.9052948830354 479.0786017466617Q1662.6486467601076 479.0786017466617 1665.594235122394 478.2603827571377Q1668.5398234846807 477.4421637676137 1670.8922030795623 476.09210243489906Q1673.2650381491817 474.7215856274463 1675.0651199261347 473.0033257494459Q1676.8652017030875 471.2646103967073 1678.3379958842308 469.4236176702783L1678.3379958842308 469.4236176702783ZM1770.162621983564 473.10560312313635L1778.201623555637 480.18319738251915Q1775.91061038497 482.5355769774007 1773.1900322448023 484.51975802699644Q1770.4694541046351 486.5039390765922 1767.155667197063 487.9358223082592Q1763.8418802894907 489.3881610146643 1759.8121517660848 490.14501357997403Q1755.8028787174171 490.9223216200219 1750.8731093055349 490.9223216200219L1750.8731093055349 490.9223216200219Q1741.074936905985 490.9223216200219 1734.1609864445072 487.4653463892829Q1727.2265805082911 484.0083711585439 1722.8491089143376 478.1785608581853Q1718.4716373203837 472.36920603256476 1716.446545321312 464.8620468036819Q1714.4214533222398 457.354887574799 1714.4214533222398 449.17269767955884L1714.4214533222398 449.17269767955884Q1714.4214533222398 443.9360961466051 1715.3828606349307 438.82222746208Q1716.3442679476216 433.7083587775549 1718.246627098265 429.0649660120061Q1720.1694417236463 424.4215732464573 1723.0332081869801 420.4532111472658Q1725.9174301250523 416.4848490480743 1729.7426039010775 413.60062711000216Q1733.5677776771017 410.73686064666805 1738.3952697152936 409.07996719288195Q1743.2227617534854 407.4230737390958 1749.032116579106 407.4230737390958L1749.032116579106 407.4230737390958Q1756.9892962522272 407.4230737390958 1762.7986510778474 410.00046355609646Q1768.6284613782063 412.5778533730971 1772.453635154231 417.2212461386459Q1776.2788089302558 421.8441834294566 1778.119801656685 428.32856892143445Q1779.9607943831138 434.8129544134123 1779.9607943831138 442.688312187581L1779.9607943831138 442.688312187581Q1779.9607943831138 444.9793253582483 1779.8176060599471 447.6999034984156Q1779.6744177367805 450.42048163858294 1779.3675856157092 452.85468313241694L1779.3675856157092 452.85468313241694L1728.4129980431007 452.85468313241694Q1728.4129980431007 458.37766131170406 1729.92670317372 463.16424240041954Q1731.4404083043396 467.9508234891351 1734.1609864445072 471.53053156830265Q1736.881564584674 475.08978417273215 1740.7476493101753 477.1148761718041Q1744.6137340356763 479.13996817087605 1749.4003151243915 479.13996817087605L1749.4003151243915 479.13996817087605Q1754.105074314155 479.13996817087605 1757.60296049437 478.4444820297806Q1761.1008466745852 477.74899588868516 1763.6168700673716 476.74667762651825Q1766.11243798542 475.76481483908947 1767.7079650149917 474.7215856274463Q1769.2830365698255 473.69881189054126 1770.162621983564 473.10560312313635L1770.162621983564 473.10560312313635ZM1739.090755856389 441.80872677384264L1765.9692496622533 441.80872677384264Q1766.0510715612058 440.99050778431865 1766.0715270359437 440.19274426953274Q1766.11243798542 439.3745252800087 1766.11243798542 438.5767617652228L1766.11243798542 438.5767617652228Q1766.11243798542 434.3629339691741 1765.1510306727291 430.8445923142208Q1764.2100788347766 427.3057951845294 1762.246353259919 424.68749441805255Q1760.3030831597994 422.06919365157574 1757.2756728985605 420.59639947043246Q1754.2687181120596 419.12360528928923 1750.1367122149632 419.12360528928923L1750.1367122149632 419.12360528928923Q1745.2069428030813 419.12360528928923 1741.7090566228658 420.7191323188611Q1738.211170442651 422.2942038736948 1735.817879898293 424.769316317005Q1733.4245893539355 427.223973285577 1731.9927061222684 430.1695616478635Q1730.5403674158633 433.11515001015 1729.8039703252916 435.77436172610305L1729.8039703252916 435.77436172610305L1725.978796549267 443.79290782343844L1739.090755856389 441.80872677384264ZM1837.4815893466525 419.8600023798609L1837.4815893466525 419.8600023798609Q1834.5360009843657 419.8600023798609 1831.6517790462935 421.0464199146707Q1828.7880125829597 422.2123819747424 1826.1288008670062 424.2170184990763Q1823.4900446257916 426.20119954867204 1821.117209556172 428.839955789887Q1818.7648299612906 431.49916750584003 1816.7806489116947 434.4447558681265L1816.7806489116947 434.4447558681265L1816.7806489116947 489.67453766099777L1802.7891041908338 489.67453766099777L1802.7891041908338 408.6708576981199L1816.7806489116947 407.1980635169767L1816.7806489116947 423.76699805483804L1824.1446198174108 410.8800489698348Q1825.1060271301012 410.28684020242986 1826.5379103617684 409.6731759602868Q1827.9697935934355 409.0390562434057 1829.8107863198647 408.56858032442943Q1831.6517790462935 408.07764893071504 1833.7586929443182 407.7503613349054Q1835.845151367604 407.4230737390958 1838.0543426393192 407.4230737390958L1838.0543426393192 407.4230737390958Q1841.3681295468914 407.4230737390958 1843.6182317680823 408.01628250650066Q1845.8683339892737 408.5890357991675 1846.9729296251307 409.1208781423581L1846.9729296251307 409.1208781423581L1846.236532534559 421.3327965610041Q1845.131936898702 420.9645980157183 1842.9227456269869 420.4123001977896Q1840.7135543552722 419.8600023798609 1837.4815893466525 419.8600023798609Z " fill="crimson" transform="matrix(0.47374815289111283,0,0,0.47374815289111283,0,85.51423082783694)"/></g></svg>